<svg id="Layer_1" data-name="Layer 1" xmlns="http://www.w3.org/2000/svg" viewBox="0 0 1734.2 397.51"><defs><style>.cls-1{font-size:328.61px;}.cls-1,.cls-2,.cls-3,.cls-4{fill:#004040;}.cls-1,.cls-3{font-family:ModerniseDemoRegular, Modernise Demo;}.cls-2{font-size:28.46px;font-family:Poppins-Bold, Poppins;font-weight:700;}.cls-3{font-size:255.06px;}</style></defs><title>colored logo</title><text class="cls-1" transform="translate(0 316.44) scale(1.24 1)">SULFMA</text><text class="cls-2" transform="matrix(1.16, -0.57, 0.44, 0.9, 1457.71, 64.64)"> </text><text class="cls-2" transform="matrix(1.19, -0.52, 0.4, 0.92, 1464.13, 61.47)"> </text><text class="cls-2" transform="matrix(1.21, -0.46, 0.36, 0.93, 1470.65, 58.62)"> </text><text class="cls-2" transform="matrix(1.23, -0.4, 0.31, 0.95, 1477.33, 56.07)"> </text><text class="cls-2" transform="matrix(1.25, -0.34, 0.26, 0.96, 1484.12, 53.85)"> </text><text class="cls-2" transform="matrix(1.26, -0.28, 0.22, 0.98, 1491, 51.97)"> </text><text class="cls-2" transform="matrix(1.28, -0.22, 0.17, 0.99, 1497.96, 50.43)"> </text><text class="cls-2" transform="matrix(1.29, -0.15, 0.12, 0.99, 1504.99, 49.23)"> </text><text class="cls-2" transform="matrix(1.29, -0.09, 0.07, 1, 1512.06, 48.4)"> </text><text class="cls-2" transform="matrix(1.29, -0.02, 0.02, 1, 1519.19, 47.91)"> </text><text class="cls-2" transform="matrix(1.29, 0.05, -0.04, 1, 1526.32, 47.79)"> </text><text class="cls-2" transform="matrix(1.29, 0.11, -0.09, 1, 1533.45, 48.04)"> </text><text class="cls-2" transform="matrix(1.28, 0.18, -0.14, 0.99, 1540.55, 48.64)"> </text><text class="cls-2" transform="matrix(1.26, 0.31, -0.24, 0.97, 1547.29, 49.13)">C</text><text class="cls-2" transform="matrix(1.2, 0.48, -0.37, 0.93, 1573.65, 56.45)"> </text><text class="cls-2" transform="matrix(1.13, 0.63, -0.48, 0.88, 1580.26, 58.31)">O</text><text class="cls-2" transform="matrix(1.05, 0.76, -0.59, 0.81, 1604.88, 72.65)"> </text><text class="cls-2" transform="matrix(0.95, 0.88, -0.68, 0.73, 1610.77, 76.17)">N</text><text class="cls-2" transform="matrix(0.84, 0.98, -0.76, 0.65, 1630.15, 94.9)"> </text><text class="cls-2" transform="matrix(0.74, 1.06, -0.82, 0.57, 1634.94, 99.93)">S</text><text class="cls-2" transform="matrix(0.64, 1.13, -0.87, 0.49, 1647.16, 117.95)"> </text><text class="cls-2" transform="matrix(0.52, 1.19, -0.92, 0.4, 1651, 123.7)">U</text><text class="cls-2" transform="matrix(0.4, 1.23, -0.95, 0.31, 1660.73, 146.96)"> </text><text class="cls-2" transform="matrix(0.3, 1.26, -0.97, 0.23, 1663.08, 153.57)">L</text><text class="cls-2" transform="matrix(0.21, 1.28, -0.99, 0.16, 1666.94, 170.37)"> </text><text class="cls-2" transform="matrix(0.1, 1.29, -1, 0.07, 1668.37, 177.23)">T</text><text class="cls-2" transform="matrix(-0.01, 1.29, -1, -0.01, 1669.66, 198.14)"> </text><text class="cls-2" transform="matrix(-0.08, 1.29, -1, -0.06, 1669.64, 205.25)">I</text><text class="cls-2" transform="matrix(-0.15, 1.29, -0.99, -0.12, 1668.94, 215.63)"> </text><text class="cls-2" transform="matrix(-0.28, 1.26, -0.98, -0.22, 1668.66, 222.59)">N</text><text class="cls-2" transform="matrix(-0.4, 1.23, -0.95, -0.31, 1662.39, 248.84)"> </text><text class="cls-2" transform="matrix(-0.53, 1.18, -0.91, -0.41, 1660.76, 255.6)">G</text><text class="cls-2" transform="matrix(-0.65, 1.12, -0.87, -0.5, 1649.09, 280.57)"> </text><text class="cls-2" transform="matrix(-0.7, 1.09, -0.84, -0.54, 1645.5, 286.79)"> </text><text class="cls-2" transform="matrix(-0.75, 1.06, -0.82, -0.58, 1641.7, 292.81)">.</text><text class="cls-2" transform="matrix(-0.8, 1.02, -0.79, -0.62, 1636.79, 299.74)"> </text><text class="cls-2" transform="matrix(-0.84, 0.98, -0.76, -0.65, 1632.39, 305.39)"> </text><text class="cls-2" transform="matrix(-0.91, 0.92, -0.71, -0.71, 1627.99, 310.86)">L</text><text class="cls-2" transform="matrix(-0.98, 0.85, -0.65, -0.76, 1615.7, 322.96)"> </text><text class="cls-2" transform="matrix(-1.05, 0.76, -0.58, -0.81, 1610.64, 327.76)">T</text><text class="cls-2" transform="matrix(-1.11, 0.66, -0.51, -0.86, 1593.47, 339.74)"> </text><text class="cls-2" transform="matrix(-1.18, 0.53, -0.41, -0.91, 1587.83, 343.73)">D</text><text class="cls-3" transform="translate(1436.87 289.14) scale(1.12 1)">N</text><path class="cls-4" d="M1689.53,1097.9q-4.33.22-8.72.23a166.24,166.24,0,1,1,0-332.47c2.92,0,5.83.08,8.72.22a166.24,166.24,0,0,0,0,332Z" transform="translate(-165.19 -726.87)"/></svg>