<svg id="Layer_1" data-name="Layer 1" xmlns="http://www.w3.org/2000/svg" viewBox="0 0 1749.55 762.92"><defs><style>.cls-1{font-size:58.09px;stroke:#000;stroke-miterlimit:10;}.cls-1,.cls-3,.cls-4,.cls-5,.cls-6{fill:#fff;}.cls-1,.cls-4{font-family:Poppins-Bold, Poppins;font-weight:700;}.cls-2{fill:none;}.cls-3{font-size:328.61px;}.cls-3,.cls-5{font-family:ModerniseDemoRegular, Modernise Demo;}.cls-4{font-size:28.46px;}.cls-5{font-size:255.06px;}</style></defs><title>white logo </title><text class="cls-1" transform="translate(481.04 207.38) rotate(-45.81) scale(0.86 1)"> </text><text class="cls-1" transform="matrix(0.62, -0.59, 0.69, 0.72, 487.73, 200.49)"> </text><text class="cls-1" transform="translate(494.65 193.89) rotate(-41.33) scale(0.86 1)"> </text><text class="cls-1" transform="matrix(0.67, -0.54, 0.63, 0.78, 501.82, 187.57)"> </text><text class="cls-1" transform="matrix(0.69, -0.51, 0.6, 0.8, 509.23, 181.56)"> </text><text class="cls-1" transform="matrix(0.71, -0.48, 0.56, 0.83, 516.88, 175.86)"> </text><text class="cls-1" transform="translate(524.77 170.49) rotate(-31.67) scale(0.86 1)"> </text><text class="cls-1" transform="matrix(0.75, -0.42, 0.49, 0.87, 532.85, 165.49)"> </text><text class="cls-1" transform="translate(541.15 160.85) rotate(-26.49) scale(0.86 1)"> </text><text class="cls-1" transform="translate(549.65 156.61) rotate(-23.82) scale(0.86 1)"> </text><text class="cls-1" transform="translate(558.33 152.76) rotate(-21.08) scale(0.86 1)"> </text><text class="cls-1" transform="matrix(0.81, -0.27, 0.31, 0.95, 567.18, 149.34)"> </text><text class="cls-1" transform="translate(576.16 146.35) rotate(-15.5) scale(0.86 1)"> </text><text class="cls-1" transform="translate(585.29 143.81) rotate(-12.65) scale(0.86 1)"> </text><text class="cls-1" transform="translate(594.51 141.73) rotate(-9.78) scale(0.86 1)"> </text><text class="cls-1" transform="translate(603.84 140.1) rotate(-6.9) scale(0.86 1)"> </text><text class="cls-1" transform="matrix(0.86, -0.06, 0.07, 1, 613.24, 138.95)"> </text><text class="cls-1" transform="translate(622.67 138.28) rotate(-1.15) scale(0.86 1)"> </text><text class="cls-1" transform="matrix(0.86, 0.03, -0.03, 1, 632.13, 138.08)"> </text><ellipse class="cls-2" cx="1440.31" cy="381.46" rx="309.24" ry="381.46"/><text class="cls-3" transform="translate(0 415.8) scale(1.24 1)">SULFMA</text><text class="cls-4" transform="matrix(1.16, -0.57, 0.44, 0.9, 1457.71, 164)"> </text><text class="cls-4" transform="matrix(1.19, -0.52, 0.4, 0.92, 1464.13, 160.83)"> </text><text class="cls-4" transform="matrix(1.21, -0.46, 0.36, 0.93, 1470.65, 157.97)"> </text><text class="cls-4" transform="matrix(1.23, -0.4, 0.31, 0.95, 1477.33, 155.43)"> </text><text class="cls-4" transform="matrix(1.25, -0.34, 0.26, 0.96, 1484.12, 153.21)"> </text><text class="cls-4" transform="matrix(1.26, -0.28, 0.22, 0.98, 1491, 151.33)"> </text><text class="cls-4" transform="matrix(1.28, -0.22, 0.17, 0.99, 1497.96, 149.79)"> </text><text class="cls-4" transform="matrix(1.29, -0.15, 0.12, 0.99, 1504.99, 148.59)"> </text><text class="cls-4" transform="matrix(1.29, -0.09, 0.07, 1, 1512.06, 147.75)"> </text><text class="cls-4" transform="matrix(1.29, -0.02, 0.02, 1, 1519.19, 147.27)"> </text><text class="cls-4" transform="matrix(1.29, 0.05, -0.04, 1, 1526.32, 147.15)"> </text><text class="cls-4" transform="matrix(1.29, 0.11, -0.09, 1, 1533.45, 147.4)"> </text><text class="cls-4" transform="matrix(1.28, 0.18, -0.14, 0.99, 1540.55, 148)"> </text><text class="cls-4" transform="matrix(1.26, 0.31, -0.24, 0.97, 1547.29, 148.49)">C</text><text class="cls-4" transform="matrix(1.2, 0.48, -0.37, 0.93, 1573.65, 155.81)"> </text><text class="cls-4" transform="matrix(1.13, 0.63, -0.48, 0.88, 1580.26, 157.67)">O</text><text class="cls-4" transform="matrix(1.05, 0.76, -0.59, 0.81, 1604.88, 172)"> </text><text class="cls-4" transform="matrix(0.95, 0.88, -0.68, 0.73, 1610.77, 175.53)">N</text><text class="cls-4" transform="matrix(0.84, 0.98, -0.76, 0.65, 1630.15, 194.26)"> </text><text class="cls-4" transform="matrix(0.74, 1.06, -0.82, 0.57, 1634.94, 199.29)">S</text><text class="cls-4" transform="matrix(0.64, 1.13, -0.87, 0.49, 1647.16, 217.31)"> </text><text class="cls-4" transform="matrix(0.52, 1.19, -0.92, 0.4, 1651, 223.06)">U</text><text class="cls-4" transform="matrix(0.4, 1.23, -0.95, 0.31, 1660.73, 246.32)"> </text><text class="cls-4" transform="matrix(0.3, 1.26, -0.97, 0.23, 1663.08, 252.93)">L</text><text class="cls-4" transform="matrix(0.21, 1.28, -0.99, 0.16, 1666.94, 269.73)"> </text><text class="cls-4" transform="matrix(0.1, 1.29, -1, 0.07, 1668.37, 276.59)">T</text><text class="cls-4" transform="matrix(-0.01, 1.29, -1, -0.01, 1669.66, 297.5)"> </text><text class="cls-4" transform="matrix(-0.08, 1.29, -1, -0.06, 1669.64, 304.61)">I</text><text class="cls-4" transform="matrix(-0.15, 1.29, -0.99, -0.12, 1668.94, 314.99)"> </text><text class="cls-4" transform="matrix(-0.28, 1.26, -0.98, -0.22, 1668.66, 321.95)">N</text><text class="cls-4" transform="matrix(-0.4, 1.23, -0.95, -0.31, 1662.39, 348.2)"> </text><text class="cls-4" transform="matrix(-0.53, 1.18, -0.91, -0.41, 1660.76, 354.96)">G</text><text class="cls-4" transform="matrix(-0.65, 1.12, -0.87, -0.5, 1649.09, 379.93)"> </text><text class="cls-4" transform="matrix(-0.7, 1.09, -0.84, -0.54, 1645.5, 386.15)"> </text><text class="cls-4" transform="matrix(-0.75, 1.06, -0.82, -0.58, 1641.7, 392.17)">.</text><text class="cls-4" transform="matrix(-0.8, 1.02, -0.79, -0.62, 1636.79, 399.1)"> </text><text class="cls-4" transform="matrix(-0.84, 0.98, -0.76, -0.65, 1632.39, 404.75)"> </text><text class="cls-4" transform="matrix(-0.91, 0.92, -0.71, -0.71, 1627.99, 410.22)">L</text><text class="cls-4" transform="matrix(-0.98, 0.85, -0.65, -0.76, 1615.7, 422.32)"> </text><text class="cls-4" transform="matrix(-1.05, 0.76, -0.58, -0.81, 1610.64, 427.12)">T</text><text class="cls-4" transform="matrix(-1.11, 0.66, -0.51, -0.86, 1593.47, 439.1)"> </text><text class="cls-4" transform="matrix(-1.18, 0.53, -0.41, -0.91, 1587.83, 443.09)">D</text><text class="cls-5" transform="translate(1436.87 388.5) scale(1.12 1)">N</text><path class="cls-6" d="M1649.57,1088.93q-4.33.22-8.73.23a166.24,166.24,0,0,1,0-332.47c2.93,0,5.84.08,8.73.22a166.24,166.24,0,0,0,0,332Z" transform="translate(-125.22 -618.54)"/></svg>