<svg id="Layer_1" data-name="Layer 1" xmlns="http://www.w3.org/2000/svg" viewBox="0 0 574.18 586.42"><defs><style>.cls-1,.cls-2,.cls-4{fill:#fff;}.cls-2{font-size:361.76px;font-family:ModerniseDemoRegular, Modernise Demo;}.cls-3{fill:#004040;}.cls-4{font-size:43.24px;font-family:Poppins-Bold, Poppins;font-weight:700;}</style></defs><title>white standalone logo</title><path class="cls-1" d="M957,829.11v13H1086l.42-13Z" transform="translate(-738.42 -652.41)"/><text x="-738.42" y="-652.41"/><text class="cls-2" transform="translate(149.64 443.6) scale(1.08 1)">s</text><ellipse class="cls-1" cx="358.19" cy="191.4" rx="27.59" ry="23.03"/><ellipse class="cls-3" cx="358.17" cy="190.72" rx="8.15" ry="6.8"/><ellipse class="cls-1" cx="152.32" cy="425.84" rx="25.57" ry="21.35"/><ellipse class="cls-3" cx="152.32" cy="425.84" rx="8.15" ry="6.8"/><text class="cls-4" transform="matrix(1.13, -0.64, 0.49, 0.87, 154, 98.08)"> </text><text class="cls-4" transform="matrix(1.16, -0.58, 0.45, 0.89, 163.42, 92.73)"> </text><text class="cls-4" transform="matrix(1.18, -0.53, 0.41, 0.91, 173.12, 87.82)"> </text><text class="cls-4" transform="matrix(1.21, -0.47, 0.36, 0.93, 183.02, 83.38)"> </text><text class="cls-4" transform="matrix(1.23, -0.41, 0.32, 0.95, 193.1, 79.44)"> </text><text class="cls-4" transform="matrix(1.25, -0.35, 0.27, 0.96, 203.37, 75.99)"> </text><text class="cls-4" transform="matrix(1.26, -0.29, 0.22, 0.98, 213.8, 73.05)"> </text><text class="cls-4" transform="matrix(1.28, -0.22, 0.17, 0.98, 224.35, 70.64)"> </text><text class="cls-4" transform="matrix(1.28, -0.16, 0.12, 0.99, 235.03, 68.75)"> </text><text class="cls-4" transform="matrix(1.29, -0.09, 0.07, 1, 245.76, 67.41)"> </text><text class="cls-4" transform="matrix(1.29, -0.03, 0.02, 1, 256.56, 66.61)"> </text><text class="cls-4" transform="matrix(1.29, 0.04, -0.03, 1, 267.37, 66.37)"> </text><text class="cls-4" transform="matrix(1.29, 0.1, -0.08, 1, 278.2, 66.67)"> </text><text class="cls-4" transform="matrix(1.27, 0.24, -0.18, 0.98, 288.6, 66.84)">C</text><text class="cls-4" transform="matrix(1.23, 0.41, -0.32, 0.95, 329.11, 75.66)"> </text><text class="cls-4" transform="matrix(1.17, 0.56, -0.43, 0.9, 339.28, 77.9)">O</text><text class="cls-4" transform="matrix(1.09, 0.7, -0.54, 0.84, 377.83, 97.49)"> </text><text class="cls-4" transform="matrix(1, 0.82, -0.64, 0.77, 387.09, 102.34)">N</text><text class="cls-4" transform="matrix(0.9, 0.93, -0.72, 0.69, 418.08, 129.04)"> </text><text class="cls-4" transform="matrix(0.8, 1.02, -0.78, 0.62, 425.78, 136.24)">S</text><text class="cls-4" transform="matrix(0.7, 1.09, -0.84, 0.54, 445.88, 162.5)"> </text><text class="cls-4" transform="matrix(0.59, 1.15, -0.89, 0.45, 452.2, 170.89)">U</text><text class="cls-4" transform="matrix(0.47, 1.21, -0.93, 0.36, 468.98, 205.29)"> </text><text class="cls-4" transform="matrix(0.37, 1.24, -0.96, 0.29, 473.12, 215.12)">L</text><text class="cls-4" transform="matrix(0.28, 1.26, -0.98, 0.22, 480.44, 240.28)"> </text><text class="cls-4" transform="matrix(0.17, 1.28, -0.99, 0.13, 483.21, 250.53)">T</text><text class="cls-4" transform="matrix(0.06, 1.29, -1, 0.05, 486.99, 282.15)"> </text><text class="cls-4" transform="matrix(-0.01, 1.29, -1, -0.01, 487.57, 292.95)">I</text><text class="cls-4" transform="matrix(-0.08, 1.29, -1, -0.06, 487.42, 308.74)"> </text><text class="cls-4" transform="matrix(-0.21, 1.28, -0.99, -0.16, 487.61, 319.28)">N</text><text class="cls-4" transform="matrix(-0.33, 1.25, -0.97, -0.26, 480.39, 359.65)"> </text><text class="cls-4" transform="matrix(-0.46, 1.21, -0.94, -0.35, 478.52, 370.04)">G</text><text class="cls-4" transform="matrix(-0.58, 1.16, -0.89, -0.45, 462.99, 408.94)"> </text><text class="cls-4" transform="matrix(-0.63, 1.13, -0.87, -0.49, 458.11, 418.67)"> </text><text class="cls-4" transform="matrix(-0.68, 1.1, -0.85, -0.53, 452.86, 428.14)">.</text><text class="cls-4" transform="matrix(-0.74, 1.07, -0.82, -0.57, 446.06, 439.04)"> </text><text class="cls-4" transform="matrix(-0.78, 1.03, -0.8, -0.6, 439.88, 448)"> </text><text class="cls-4" transform="matrix(-0.86, 0.97, -0.75, -0.66, 433.68, 456.69)">L</text><text class="cls-4" transform="matrix(-0.93, 0.9, -0.7, -0.72, 416.1, 476.12)"> </text><text class="cls-4" transform="matrix(-1.01, 0.82, -0.63, -0.78, 408.85, 483.85)">T</text><text class="cls-4" transform="matrix(-1.07, 0.72, -0.56, -0.83, 383.88, 503.52)"> </text><text class="cls-4" transform="matrix(-1.15, 0.6, -0.46, -0.89, 375.67, 510.08)">D</text><path class="cls-1" d="M1004.26,1212.43q-6.6.33-13.26.34c-139.5,0-252.58-113.09-252.58-252.58S851.5,707.61,991,707.61q6.66,0,13.26.34c-133.34,6.9-239.32,117.2-239.32,252.24S870.92,1205.54,1004.26,1212.43Z" transform="translate(-738.42 -652.41)"/></svg>